<svg xmlns="http://www.w3.org/2000/svg" xmlns:xlink="http://www.w3.org/1999/xlink" width="30" height="30" version="1.1" viewBox="0 0 252 252"><g><g fill="none" fill-rule="nonzero" stroke="none" stroke-dashoffset="0" stroke-linecap="butt" stroke-linejoin="miter" stroke-miterlimit="10" stroke-width="1" font-family="none" font-size="none" font-weight="none" text-anchor="none" transform="translate(-8.82,-8.82) scale(1.07,1.07)" style="mix-blend-mode:normal"><path fill="none" d="M0,252v-252h252v252z"/><g id="Layer_1"><g><path fill="#fff" d="M126,239.4c-62.16,0 -113.4,-51.24 -113.4,-113.4c0,-62.16 51.24,-113.4 113.4,-113.4c62.16,0 113.4,51.24 113.4,113.4c0,62.16 -51.24,113.4 -113.4,113.4z"/><g fill="#3b99fc"><path d="M126,16.8c60.48,0 109.2,48.72 109.2,109.2c0,60.48 -48.72,109.2 -109.2,109.2c-60.48,0 -109.2,-48.72 -109.2,-109.2c0,-60.48 48.72,-109.2 109.2,-109.2M126,8.4c-64.68,0 -117.6,52.92 -117.6,117.6c0,64.68 52.92,117.6 117.6,117.6c64.68,0 117.6,-52.92 117.6,-117.6c0,-64.68 -52.92,-117.6 -117.6,-117.6z"/></g></g><path fill="#3b99fc" d="M109.2,171.36l-39.48,-39.48l11.76,-11.76l27.72,27.72l69.72,-69.72l11.76,11.76z"/></g><path fill="none"/><path fill="none"/><path fill="none"/><path fill="none"/><path fill="none"/><path fill="none"/></g></g></svg>