<svg xmlns="http://www.w3.org/2000/svg" xmlns:xlink="http://www.w3.org/1999/xlink" width="512" height="512" viewBox="0 0 512 512"><title>wallet-icon+usb_512w</title><defs><linearGradient id="a" x1="50%" x2="50%" y1="33.29%" y2="97.927%"><stop offset="0%" stop-color="#1C1D1F"/><stop offset="100%" stop-color="#1E2126"/></linearGradient><path id="b" d="M126.053 111.746h146.47c16.832 0 30.477 13.645 30.477 30.476v339.302C303 498.355 289.355 512 272.524 512h-146.47c-16.832 0-30.477-13.645-30.477-30.476V142.222c0-16.831 13.645-30.476 30.476-30.476zm148.465 331.175c-7.855 0-14.223 6.367-14.223 14.222v22.35c0 7.854 6.368 14.221 14.223 14.221h.025c7.855 0 14.222-6.367 14.222-14.222v-22.35c0-7.854-6.367-14.221-14.222-14.221h-.025z"/><linearGradient id="c" x1="50%" x2="50%" y1="0%" y2="100%"><stop offset="0%" stop-color="#101113"/><stop offset="100%" stop-color="#1D1F23"/></linearGradient><linearGradient id="d" x1="50%" x2="50%" y1="-48.145%" y2="100%"><stop offset="0%" stop-color="#101113"/><stop offset="100%" stop-color="#1D1F23"/></linearGradient><path id="e" d="M6.095 0h115.931c7.855 0 14.222 6.368 14.222 14.222v97.524H0V6.096A6.095 6.095 0 0 1 6.095 0z"/><path id="f" d="M18.297 12.19h99.655a6.095 6.095 0 0 1 6.095 6.096v93.46H12.201v-93.46a6.095 6.095 0 0 1 6.096-6.096z"/><path id="h" d="M24.65 111.208h5.881v-7.378h7.079c1.122 0 2.031-.91 2.031-2.031V19.573a4.063 4.063 0 0 0-4.063-4.063H17.469c-1.122 0-2.032.91-2.032 2.032v84.257c0 1.122.91 2.031 2.032 2.031h7.18v7.378z"/><filter id="g" width="157.8%" height="114.6%" x="-28.9%" y="-5.2%" filterUnits="objectBoundingBox"><feOffset dy="2" in="SourceAlpha" result="shadowOffsetOuter1"/><feGaussianBlur in="shadowOffsetOuter1" result="shadowBlurOuter1" stdDeviation="2"/><feColorMatrix in="shadowBlurOuter1" values="0 0 0 0 0 0 0 0 0 0 0 0 0 0 0 0 0 0 0.5 0"/></filter><path id="j" d="M105.992 111.208h5.881v-7.378h7.079c1.122 0 2.032-.91 2.032-2.031V19.573a4.063 4.063 0 0 0-4.064-4.063H98.811c-1.122 0-2.031.91-2.031 2.032v84.257c0 1.122.91 2.031 2.031 2.031h7.181v7.378z"/><filter id="i" width="157.8%" height="114.6%" x="-28.9%" y="-5.2%" filterUnits="objectBoundingBox"><feOffset dy="2" in="SourceAlpha" result="shadowOffsetOuter1"/><feGaussianBlur in="shadowOffsetOuter1" result="shadowBlurOuter1" stdDeviation="2"/><feColorMatrix in="shadowBlurOuter1" values="0 0 0 0 0 0 0 0 0 0 0 0 0 0 0 0 0 0 0.5 0"/></filter><path id="l" d="M75.489 111.208h5.881V91.64h5.045c1.122 0 2.032-.91 2.032-2.032V27.7a4.063 4.063 0 0 0-4.064-4.063H72.375c-1.122 0-2.032.91-2.032 2.032v63.94c0 1.121.91 2.03 2.032 2.03h3.114v19.57z"/><filter id="k" width="177.3%" height="116%" x="-38.7%" y="-5.7%" filterUnits="objectBoundingBox"><feOffset dy="2" in="SourceAlpha" result="shadowOffsetOuter1"/><feGaussianBlur in="shadowOffsetOuter1" result="shadowBlurOuter1" stdDeviation="2"/><feColorMatrix in="shadowBlurOuter1" values="0 0 0 0 0 0 0 0 0 0 0 0 0 0 0 0 0 0 0.5 0"/></filter><path id="n" d="M51.086 111.208h5.881V91.64h5.045c1.122 0 2.032-.91 2.032-2.032v-63.94c0-1.121-.91-2.031-2.032-2.031h-14.04c-1.122 0-2.031.91-2.031 2.032v63.94c0 1.121.91 2.03 2.031 2.03h3.114v19.57z"/><filter id="m" width="177.3%" height="116%" x="-38.7%" y="-5.7%" filterUnits="objectBoundingBox"><feOffset dy="2" in="SourceAlpha" result="shadowOffsetOuter1"/><feGaussianBlur in="shadowOffsetOuter1" result="shadowBlurOuter1" stdDeviation="2"/><feColorMatrix in="shadowBlurOuter1" values="0 0 0 0 0 0 0 0 0 0 0 0 0 0 0 0 0 0 0.5 0"/></filter></defs><g fill="none" fill-rule="evenodd" transform="translate(57)"><use fill="url(#a)" xlink:href="#b"/><path stroke="#181A1D" stroke-width="2.032" d="M126.053 112.762c-16.27 0-29.46 13.19-29.46 29.46v339.302c0 16.27 13.19 29.46 29.46 29.46h146.47c16.271 0 29.461-13.19 29.461-29.46V142.222c0-16.27-13.19-29.46-29.46-29.46h-146.47zm148.465 329.143h.025c8.416 0 15.238 6.822 15.238 15.238v22.35c0 8.415-6.822 15.237-15.238 15.237h-.025c-8.416 0-15.239-6.822-15.239-15.238v-22.35c0-8.415 6.823-15.237 15.239-15.237z"/><path fill="url(#c)" d="M97.611 335.238H303V351.492H97.611z" style="mix-blend-mode:darken"/><path fill="url(#d)" d="M97.611 318.984H303V335.238H97.611z" transform="rotate(-180 200.305 327.111)" style="mix-blend-mode:darken"/><g transform="translate(130.148)"><use fill="#000" xlink:href="#e"/><path stroke="#000" stroke-width="2.032" d="M1.016 110.73h134.216V14.222c0-7.293-5.912-13.206-13.206-13.206H6.096a5.08 5.08 0 0 0-5.08 5.08V110.73z"/><use fill="#264434" xlink:href="#f"/><path stroke="#000" stroke-width="2.032" d="M13.217 110.73h109.814V18.286a5.08 5.08 0 0 0-5.08-5.08H18.298a5.08 5.08 0 0 0-5.08 5.08v92.444z"/><use fill="#000" filter="url(#g)" xlink:href="#h"/><use fill="#A39771" xlink:href="#h"/><g><use fill="#000" filter="url(#i)" xlink:href="#j"/><use fill="#A39771" xlink:href="#j"/></g><g><use fill="#000" filter="url(#k)" xlink:href="#l"/><use fill="#A39771" xlink:href="#l"/></g><g transform="matrix(-1 0 0 1 109.985 0)"><use fill="#000" filter="url(#m)" xlink:href="#n"/><use fill="#A39771" xlink:href="#n"/></g></g></g></svg>